<?xml version="1.0" encoding="utf-8"?>
<!-- Generated by IcoMoon.io -->
<!DOCTYPE svg PUBLIC "-//W3C//DTD SVG 1.1//EN" "http://www.w3.org/Graphics/SVG/1.1/DTD/svg11.dtd">
<svg version="1.1" xmlns="http://www.w3.org/2000/svg" xmlns:xlink="http://www.w3.org/1999/xlink" width="60" height="60" viewBox="0 0 60 60">
<path fill="#2c80a7" d="M18 0h-6c-1.656 0-3 1.344-3 3v6c0 1.656 1.344 3 3 3h6c1.656 0 3-1.344 3-3v-6c0-1.656-1.344-3-3-3zM33 0h-6c-1.656 0-3 1.344-3 3v6c0 1.656 1.344 3 3 3h6c1.656 0 3-1.344 3-3v-6c0-1.656-1.344-3-3-3zM48 0h-6c-1.656 0-3 1.344-3 3v6c0 1.656 1.344 3 3 3h6c1.656 0 3-1.344 3-3v-6c0-1.656-1.344-3-3-3zM18 15h-6c-1.656 0-3 1.344-3 3v6c0 1.656 1.344 3 3 3h6c1.656 0 3-1.344 3-3v-6c0-1.656-1.344-3-3-3zM33 15h-6c-1.656 0-3 1.344-3 3v6c0 1.656 1.344 3 3 3h6c1.656 0 3-1.344 3-3v-6c0-1.656-1.344-3-3-3zM48 15h-6c-1.656 0-3 1.344-3 3v6c0 1.656 1.344 3 3 3h6c1.656 0 3-1.344 3-3v-6c0-1.656-1.344-3-3-3zM18 30h-6c-1.656 0-3 1.344-3 3v6c0 1.656 1.344 3 3 3h6c1.656 0 3-1.344 3-3v-6c0-1.656-1.344-3-3-3zM33 30h-6c-1.656 0-3 1.344-3 3v6c0 1.656 1.344 3 3 3h6c1.656 0 3-1.344 3-3v-6c0-1.656-1.344-3-3-3zM33 48h-6c-1.656 0-3 1.344-3 3v6c0 1.656 1.344 3 3 3h6c1.656 0 3-1.344 3-3v-6c0-1.656-1.344-3-3-3zM48 30h-6c-1.656 0-3 1.344-3 3v6c0 1.656 1.344 3 3 3h6c1.656 0 3-1.344 3-3v-6c0-1.656-1.344-3-3-3z"></path>
</svg>
