<?xml version="1.0" encoding="utf-8"?>
<!-- Generated by IcoMoon.io -->
<!DOCTYPE svg PUBLIC "-//W3C//DTD SVG 1.1//EN" "http://www.w3.org/Graphics/SVG/1.1/DTD/svg11.dtd">
<svg version="1.1" xmlns="http://www.w3.org/2000/svg" xmlns:xlink="http://www.w3.org/1999/xlink" width="80" height="80" viewBox="0 0 80 80">
<path fill="#ffffff" d="M24 0h-8c-2.208 0-4 1.792-4 4v8c0 2.208 1.792 4 4 4h8c2.208 0 4-1.792 4-4v-8c0-2.208-1.792-4-4-4zM44 0h-8c-2.208 0-4 1.792-4 4v8c0 2.208 1.792 4 4 4h8c2.208 0 4-1.792 4-4v-8c0-2.208-1.792-4-4-4zM64 0h-8c-2.208 0-4 1.792-4 4v8c0 2.208 1.792 4 4 4h8c2.208 0 4-1.792 4-4v-8c0-2.208-1.792-4-4-4zM24 20h-8c-2.208 0-4 1.792-4 4v8c0 2.208 1.792 4 4 4h8c2.208 0 4-1.792 4-4v-8c0-2.208-1.792-4-4-4zM44 20h-8c-2.208 0-4 1.792-4 4v8c0 2.208 1.792 4 4 4h8c2.208 0 4-1.792 4-4v-8c0-2.208-1.792-4-4-4zM64 20h-8c-2.208 0-4 1.792-4 4v8c0 2.208 1.792 4 4 4h8c2.208 0 4-1.792 4-4v-8c0-2.208-1.792-4-4-4zM24 40h-8c-2.208 0-4 1.792-4 4v8c0 2.208 1.792 4 4 4h8c2.208 0 4-1.792 4-4v-8c0-2.208-1.792-4-4-4zM44 40h-8c-2.208 0-4 1.792-4 4v8c0 2.208 1.792 4 4 4h8c2.208 0 4-1.792 4-4v-8c0-2.208-1.792-4-4-4zM44 64h-8c-2.208 0-4 1.792-4 4v8c0 2.208 1.792 4 4 4h8c2.208 0 4-1.792 4-4v-8c0-2.208-1.792-4-4-4zM64 40h-8c-2.208 0-4 1.792-4 4v8c0 2.208 1.792 4 4 4h8c2.208 0 4-1.792 4-4v-8c0-2.208-1.792-4-4-4z"></path>
</svg>
