<?xml version="1.0" encoding="utf-8"?>
<!-- Generated by IcoMoon.io -->
<!DOCTYPE svg PUBLIC "-//W3C//DTD SVG 1.1//EN" "http://www.w3.org/Graphics/SVG/1.1/DTD/svg11.dtd">
<svg version="1.1" xmlns="http://www.w3.org/2000/svg" xmlns:xlink="http://www.w3.org/1999/xlink" width="40" height="40" viewBox="0 0 40 40">
<path fill="#ffffff" d="M12 0h-4c-1.104 0-2 0.896-2 2v4c0 1.104 0.896 2 2 2h4c1.104 0 2-0.896 2-2v-4c0-1.104-0.896-2-2-2zM22 0h-4c-1.104 0-2 0.896-2 2v4c0 1.104 0.896 2 2 2h4c1.104 0 2-0.896 2-2v-4c0-1.104-0.896-2-2-2zM32 0h-4c-1.104 0-2 0.896-2 2v4c0 1.104 0.896 2 2 2h4c1.104 0 2-0.896 2-2v-4c0-1.104-0.896-2-2-2zM12 10h-4c-1.104 0-2 0.896-2 2v4c0 1.104 0.896 2 2 2h4c1.104 0 2-0.896 2-2v-4c0-1.104-0.896-2-2-2zM22 10h-4c-1.104 0-2 0.896-2 2v4c0 1.104 0.896 2 2 2h4c1.104 0 2-0.896 2-2v-4c0-1.104-0.896-2-2-2zM32 10h-4c-1.104 0-2 0.896-2 2v4c0 1.104 0.896 2 2 2h4c1.104 0 2-0.896 2-2v-4c0-1.104-0.896-2-2-2zM12 20h-4c-1.104 0-2 0.896-2 2v4c0 1.104 0.896 2 2 2h4c1.104 0 2-0.896 2-2v-4c0-1.104-0.896-2-2-2zM22 20h-4c-1.104 0-2 0.896-2 2v4c0 1.104 0.896 2 2 2h4c1.104 0 2-0.896 2-2v-4c0-1.104-0.896-2-2-2zM22 32h-4c-1.104 0-2 0.896-2 2v4c0 1.104 0.896 2 2 2h4c1.104 0 2-0.896 2-2v-4c0-1.104-0.896-2-2-2zM32 20h-4c-1.104 0-2 0.896-2 2v4c0 1.104 0.896 2 2 2h4c1.104 0 2-0.896 2-2v-4c0-1.104-0.896-2-2-2z"></path>
</svg>
