<?xml version="1.0" encoding="utf-8"?>
<!-- Generated by IcoMoon.io -->
<!DOCTYPE svg PUBLIC "-//W3C//DTD SVG 1.1//EN" "http://www.w3.org/Graphics/SVG/1.1/DTD/svg11.dtd">
<svg version="1.1" xmlns="http://www.w3.org/2000/svg" xmlns:xlink="http://www.w3.org/1999/xlink" width="80" height="80" viewBox="0 0 80 80">
<path fill="#ffffff" d="M79.483 45c0.625 4.335 1.032 10.265-0.911 12.535-3.214 3.753-23.571 3.753-23.571-3.753 0-3.781 3.348-6.26 0.134-10.014-3.162-3.692-8.83-3.752-15.134-3.753-6.304 0.001-11.972 0.061-15.134 3.753-3.214 3.754 0.134 6.233 0.134 10.014 0 7.507-20.357 7.507-23.571 3.753-1.944-2.27-1.537-8.2-0.911-12.535 0.481-2.894 1.697-6.015 5.59-10 0-0 0-0 0-0 5.839-5.449 14.675-9.901 33.58-9.998v-0.002c0.105 0 0.208 0.001 0.313 0.001s0.207-0.001 0.313-0.001v0.002c18.905 0.096 27.741 4.549 33.58 9.998 0 0 0 0 0 0 3.892 3.984 5.109 7.106 5.59 10z"></path>
</svg>
