<?xml version="1.0" encoding="utf-8"?>
<!-- Generated by IcoMoon.io -->
<!DOCTYPE svg PUBLIC "-//W3C//DTD SVG 1.1//EN" "http://www.w3.org/Graphics/SVG/1.1/DTD/svg11.dtd">
<svg version="1.1" xmlns="http://www.w3.org/2000/svg" xmlns:xlink="http://www.w3.org/1999/xlink" width="48" height="48" viewBox="0 0 48 48">
<path fill="#ffffff" d="M47.69 27c0.375 2.601 0.62 6.159-0.547 7.521-1.929 2.252-14.143 2.252-14.143-2.252 0-2.269 2.009-3.756 0.080-6.008-1.897-2.215-5.298-2.251-9.080-2.252-3.782 0.001-7.183 0.037-9.080 2.252-1.929 2.252 0.080 3.74 0.080 6.008 0 4.504-12.214 4.504-14.143 2.252-1.166-1.362-0.922-4.92-0.547-7.521 0.289-1.736 1.018-3.609 3.354-6 0-0 0-0 0-0 3.503-3.269 8.805-5.941 20.148-5.998v-0.001c0.063 0 0.125 0 0.188 0.001s0.124-0.001 0.188-0.001v0.001c11.343 0.058 16.645 2.729 20.148 5.998 0 0 0 0 0 0 2.335 2.39 3.065 4.263 3.354 6z"></path>
</svg>
