<?xml version="1.0" encoding="utf-8"?>
<!-- Generated by IcoMoon.io -->
<!DOCTYPE svg PUBLIC "-//W3C//DTD SVG 1.1//EN" "http://www.w3.org/Graphics/SVG/1.1/DTD/svg11.dtd">
<svg version="1.1" xmlns="http://www.w3.org/2000/svg" xmlns:xlink="http://www.w3.org/1999/xlink" width="29" height="26" viewBox="0 0 29 26">
<path fill="#ffffff" d="M19.5 19.566v-1.34c1.79-1.009 3.25-3.524 3.25-6.039 0-4.039 0-7.313-4.875-7.313s-4.875 3.274-4.875 7.313c0 2.515 1.46 5.030 3.25 6.039v1.34c-5.512 0.451-9.75 3.159-9.75 6.434h22.75c0-3.275-4.238-5.983-9.75-6.434z"></path>
<path fill="#ffffff" d="M8.308 20.194c1.404-0.918 3.15-1.616 5.073-2.042-0.382-0.452-0.729-0.955-1.028-1.499-0.772-1.402-1.18-2.947-1.18-4.466 0-2.185 0-4.248 0.777-5.935 0.754-1.638 2.111-2.653 4.043-3.034-0.429-1.942-1.573-3.218-4.617-3.218-4.875 0-4.875 3.274-4.875 7.313 0 2.515 1.46 5.030 3.25 6.039v1.34c-5.512 0.451-9.75 3.159-9.75 6.434h7.084c0.369-0.328 0.777-0.639 1.224-0.931z"></path>
</svg>
