<?xml version="1.0" encoding="utf-8"?>
<!-- Generated by IcoMoon.io -->
<!DOCTYPE svg PUBLIC "-//W3C//DTD SVG 1.1//EN" "http://www.w3.org/Graphics/SVG/1.1/DTD/svg11.dtd">
<svg version="1.1" xmlns="http://www.w3.org/2000/svg" xmlns:xlink="http://www.w3.org/1999/xlink" width="50" height="44" viewBox="0 0 50 44">
<path fill="#ffffff" d="M33 33.112v-2.268c3.029-1.707 5.5-5.963 5.5-10.219 0-6.835 0-12.375-8.25-12.375s-8.25 5.54-8.25 12.375c0 4.256 2.471 8.512 5.5 10.219v2.268c-9.329 0.763-16.5 5.346-16.5 10.888h38.5c0-5.542-7.171-10.125-16.5-10.888z"></path>
<path fill="#ffffff" d="M14.059 34.174c2.377-1.553 5.332-2.734 8.585-3.455-0.647-0.764-1.234-1.617-1.74-2.536-1.307-2.373-1.998-4.987-1.998-7.558 0-3.697 0-7.189 1.315-10.044 1.276-2.772 3.572-4.49 6.842-5.134-0.727-3.286-2.661-5.446-7.813-5.446-8.25 0-8.25 5.54-8.25 12.375 0 4.256 2.471 8.512 5.5 10.219v2.268c-9.329 0.763-16.5 5.346-16.5 10.888h11.989c0.624-0.555 1.315-1.082 2.071-1.576z"></path>
</svg>
