<?xml version="1.0" encoding="utf-8"?>
<!-- Generated by IcoMoon.io -->
<!DOCTYPE svg PUBLIC "-//W3C//DTD SVG 1.1//EN" "http://www.w3.org/Graphics/SVG/1.1/DTD/svg11.dtd">
<svg version="1.1" xmlns="http://www.w3.org/2000/svg" xmlns:xlink="http://www.w3.org/1999/xlink" width="85" height="80" viewBox="0 0 85 80">
<path fill="#ffffff" d="M69.534 72.034c-0.96 0-1.919-0.366-2.652-1.098-1.464-1.465-1.464-3.839 0-5.303 6.847-6.847 10.618-15.95 10.618-25.633s-3.771-18.786-10.618-25.633c-1.464-1.465-1.464-3.839 0-5.303s3.839-1.464 5.303 0c8.263 8.263 12.814 19.25 12.814 30.936s-4.551 22.672-12.814 30.936c-0.732 0.732-1.692 1.098-2.652 1.098zM56.213 64.963c-0.96 0-1.919-0.366-2.652-1.098-1.464-1.464-1.464-3.839 0-5.303 10.235-10.235 10.235-26.888 0-37.123-1.464-1.465-1.464-3.839 0-5.303s3.839-1.464 5.303 0c6.375 6.374 9.885 14.85 9.885 23.865s-3.511 17.49-9.885 23.865c-0.732 0.732-1.692 1.098-2.652 1.098v0zM42.892 57.892c-0.96 0-1.919-0.366-2.652-1.098-1.465-1.465-1.465-3.839 0-5.303 6.336-6.336 6.336-16.645 0-22.981-1.465-1.465-1.465-3.839 0-5.303s3.839-1.464 5.303 0c9.26 9.26 9.26 24.327 0 33.588-0.732 0.732-1.692 1.098-2.652 1.098z"></path>
<path fill="#ffffff" d="M32.5 75c-0.651 0-1.29-0.254-1.768-0.732l-19.268-19.268h-8.965c-1.381 0-2.5-1.119-2.5-2.5v-25c0-1.381 1.119-2.5 2.5-2.5h8.965l19.268-19.268c0.715-0.715 1.79-0.929 2.725-0.542s1.543 1.299 1.543 2.31v65c0 1.011-0.609 1.923-1.543 2.31-0.309 0.128-0.634 0.19-0.956 0.19z"></path>
</svg>
